<mxfile host="app.diagrams.net" modified="2024-05-02T11:26:08.261Z" agent="Mozilla/5.0 (Macintosh; Intel Mac OS X 10.15; rv:125.0) Gecko/20100101 Firefox/125.0" etag="xRkPrMvs1IhRBqLpjtcD" scale="1" border="0" version="24.2.5" type="device">
  <diagram name="Page-1" id="jYixplyprYPuEKd9gNtR">
    <mxGraphModel dx="1147" dy="638" grid="1" gridSize="10" guides="1" tooltips="1" connect="1" arrows="1" fold="1" page="1" pageScale="1" pageWidth="1169" pageHeight="827" math="0" shadow="0">
      <root>
        <mxCell id="0" />
        <mxCell id="1" parent="0" />
        <mxCell id="JOG0SNgDEtSP5BDotJ7P-2" value="" style="rounded=1;whiteSpace=wrap;html=1;dashed=1;strokeColor=#3399FF;arcSize=5;" parent="1" vertex="1">
          <mxGeometry x="400" y="140" width="260" height="490" as="geometry" />
        </mxCell>
        <mxCell id="YD3ktpNltf6AlCkL0afC-1" value="" style="rounded=1;whiteSpace=wrap;html=1;fillColor=#f5f5f5;fontColor=#333333;strokeColor=#666666;" vertex="1" parent="1">
          <mxGeometry x="435" y="348" width="205" height="122" as="geometry" />
        </mxCell>
        <mxCell id="JOG0SNgDEtSP5BDotJ7P-19" value="" style="rounded=1;whiteSpace=wrap;html=1;dashed=1;strokeColor=#3399FF;arcSize=5;" parent="1" vertex="1">
          <mxGeometry x="59" y="253" width="210" height="190" as="geometry" />
        </mxCell>
        <mxCell id="JOG0SNgDEtSP5BDotJ7P-33" value="" style="group" parent="1" vertex="1" connectable="0">
          <mxGeometry x="860" y="381" width="230" height="213" as="geometry" />
        </mxCell>
        <mxCell id="JOG0SNgDEtSP5BDotJ7P-14" value="" style="rounded=1;whiteSpace=wrap;html=1;dashed=1;strokeColor=#3399FF;arcSize=5;" parent="JOG0SNgDEtSP5BDotJ7P-33" vertex="1">
          <mxGeometry x="20" y="23" width="210" height="190" as="geometry" />
        </mxCell>
        <mxCell id="JOG0SNgDEtSP5BDotJ7P-15" value="" style="image;aspect=fixed;html=1;points=[];align=center;fontSize=12;image=img/lib/azure2/networking/Virtual_Networks.svg;imageBackground=default;" parent="JOG0SNgDEtSP5BDotJ7P-33" vertex="1">
          <mxGeometry y="13" width="50.25" height="30" as="geometry" />
        </mxCell>
        <mxCell id="JOG0SNgDEtSP5BDotJ7P-16" value="" style="image;aspect=fixed;html=1;points=[];align=center;fontSize=12;image=img/lib/azure2/compute/Virtual_Machine.svg;" parent="JOG0SNgDEtSP5BDotJ7P-33" vertex="1">
          <mxGeometry x="91" y="86" width="69" height="64" as="geometry" />
        </mxCell>
        <mxCell id="JOG0SNgDEtSP5BDotJ7P-17" value="wsi-int-1" style="text;html=1;align=center;verticalAlign=middle;resizable=0;points=[];autosize=1;strokeColor=none;fillColor=none;" parent="JOG0SNgDEtSP5BDotJ7P-33" vertex="1">
          <mxGeometry x="90" y="63" width="70" height="30" as="geometry" />
        </mxCell>
        <mxCell id="JOG0SNgDEtSP5BDotJ7P-18" value="internal-vnet-1 - 10.0.12.0/22" style="text;html=1;align=center;verticalAlign=middle;resizable=0;points=[];autosize=1;strokeColor=none;fillColor=none;" parent="JOG0SNgDEtSP5BDotJ7P-33" vertex="1">
          <mxGeometry x="38" width="180" height="30" as="geometry" />
        </mxCell>
        <mxCell id="JOG0SNgDEtSP5BDotJ7P-39" style="edgeStyle=orthogonalEdgeStyle;rounded=0;orthogonalLoop=1;jettySize=auto;html=1;dashed=1;strokeColor=#000000;strokeWidth=2;endArrow=classic;endFill=1;startArrow=classic;startFill=1;entryX=0.006;entryY=0.421;entryDx=0;entryDy=0;entryPerimeter=0;" parent="1" source="JOG0SNgDEtSP5BDotJ7P-19" edge="1" target="JOG0SNgDEtSP5BDotJ7P-2">
          <mxGeometry relative="1" as="geometry">
            <mxPoint x="460" y="348" as="targetPoint" />
          </mxGeometry>
        </mxCell>
        <mxCell id="zMQaQVEI4AzmIbu18Spw-1" value="" style="rounded=1;whiteSpace=wrap;html=1;fillColor=#f5f5f5;fontColor=#333333;strokeColor=#666666;" parent="1" vertex="1">
          <mxGeometry x="69" y="290" width="190" height="128.21" as="geometry" />
        </mxCell>
        <mxCell id="JOG0SNgDEtSP5BDotJ7P-20" value="" style="image;aspect=fixed;html=1;points=[];align=center;fontSize=12;image=img/lib/azure2/networking/Virtual_Networks.svg;imageBackground=default;" parent="1" vertex="1">
          <mxGeometry x="39" y="243" width="50.25" height="30" as="geometry" />
        </mxCell>
        <mxCell id="JOG0SNgDEtSP5BDotJ7P-23" value="ingress-vnet - 10.0.4.0/22" style="text;html=1;align=center;verticalAlign=middle;resizable=0;points=[];autosize=1;strokeColor=none;fillColor=none;" parent="1" vertex="1">
          <mxGeometry x="79" y="230" width="160" height="30" as="geometry" />
        </mxCell>
        <mxCell id="JOG0SNgDEtSP5BDotJ7P-24" value="" style="image;aspect=fixed;html=1;points=[];align=center;fontSize=12;image=img/lib/azure2/networking/Application_Gateways.svg;" parent="1" vertex="1">
          <mxGeometry x="118" y="334" width="64" height="64" as="geometry" />
        </mxCell>
        <mxCell id="JOG0SNgDEtSP5BDotJ7P-25" value="app-gateway-ingress-vnet" style="text;html=1;align=center;verticalAlign=middle;resizable=0;points=[];autosize=1;strokeColor=none;fillColor=none;" parent="1" vertex="1">
          <mxGeometry x="70" y="307" width="160" height="30" as="geometry" />
        </mxCell>
        <mxCell id="JOG0SNgDEtSP5BDotJ7P-28" value="" style="group" parent="1" vertex="1" connectable="0">
          <mxGeometry x="147.75" y="365" width="120" height="42" as="geometry" />
        </mxCell>
        <mxCell id="JOG0SNgDEtSP5BDotJ7P-26" value="" style="image;aspect=fixed;html=1;points=[];align=center;fontSize=12;image=img/lib/azure2/networking/Public_IP_Addresses.svg;" parent="JOG0SNgDEtSP5BDotJ7P-28" vertex="1">
          <mxGeometry x="46.25" width="27.5" height="22" as="geometry" />
        </mxCell>
        <mxCell id="JOG0SNgDEtSP5BDotJ7P-27" value="app-gw-pip-ingress-vnet" style="text;html=1;align=center;verticalAlign=middle;resizable=0;points=[];autosize=1;strokeColor=none;fillColor=none;fontSize=9;" parent="JOG0SNgDEtSP5BDotJ7P-28" vertex="1">
          <mxGeometry y="22" width="120" height="20" as="geometry" />
        </mxCell>
        <mxCell id="JOG0SNgDEtSP5BDotJ7P-40" value="Virtual Network Peering" style="text;html=1;align=center;verticalAlign=middle;resizable=0;points=[];autosize=1;strokeColor=none;fillColor=none;fontSize=10;" parent="1" vertex="1">
          <mxGeometry x="269" y="325.5" width="130" height="30" as="geometry" />
        </mxCell>
        <mxCell id="JOG0SNgDEtSP5BDotJ7P-42" style="edgeStyle=orthogonalEdgeStyle;rounded=0;orthogonalLoop=1;jettySize=auto;html=1;startArrow=classic;startFill=1;strokeWidth=2;dashed=1;entryX=0;entryY=0.5;entryDx=0;entryDy=0;" parent="1" source="JOG0SNgDEtSP5BDotJ7P-2" target="JOG0SNgDEtSP5BDotJ7P-14" edge="1">
          <mxGeometry relative="1" as="geometry">
            <Array as="points">
              <mxPoint x="800" y="410" />
              <mxPoint x="800" y="499" />
            </Array>
            <mxPoint x="670" y="370" as="sourcePoint" />
            <mxPoint x="840" y="500" as="targetPoint" />
          </mxGeometry>
        </mxCell>
        <mxCell id="JOG0SNgDEtSP5BDotJ7P-43" value="&lt;font style=&quot;font-size: 10px;&quot;&gt;Virtual Network Peering&lt;br&gt;&lt;/font&gt;" style="text;html=1;align=center;verticalAlign=middle;resizable=0;points=[];autosize=1;strokeColor=none;fillColor=none;" parent="1" vertex="1">
          <mxGeometry x="673" y="333" width="130" height="30" as="geometry" />
        </mxCell>
        <mxCell id="JOG0SNgDEtSP5BDotJ7P-45" value="Traffic to web servers through router-vm.&lt;br&gt;Additional routes specify individual VMs" style="text;html=1;align=center;verticalAlign=middle;resizable=0;points=[];autosize=1;strokeColor=none;fillColor=none;" parent="1" vertex="1">
          <mxGeometry x="150" y="459.79" width="240" height="40" as="geometry" />
        </mxCell>
        <mxCell id="JOG0SNgDEtSP5BDotJ7P-48" value="Traffic from app gateway through router-vm" style="text;html=1;align=center;verticalAlign=middle;resizable=0;points=[];autosize=1;strokeColor=none;fillColor=none;fontSize=10;" parent="1" vertex="1">
          <mxGeometry x="662" y="564" width="220" height="30" as="geometry" />
        </mxCell>
        <mxCell id="JOG0SNgDEtSP5BDotJ7P-47" style="edgeStyle=orthogonalEdgeStyle;rounded=0;orthogonalLoop=1;jettySize=auto;html=1;strokeColor=#EA6B66;dashed=1;strokeWidth=2;" parent="1" target="JOG0SNgDEtSP5BDotJ7P-16" edge="1">
          <mxGeometry relative="1" as="geometry">
            <Array as="points">
              <mxPoint x="650" y="410" />
              <mxPoint x="650" y="570" />
              <mxPoint x="985" y="570" />
            </Array>
            <mxPoint x="570" y="410" as="sourcePoint" />
          </mxGeometry>
        </mxCell>
        <mxCell id="JOG0SNgDEtSP5BDotJ7P-50" value="Traffic from app gateway through router-vm" style="text;html=1;align=center;verticalAlign=middle;resizable=0;points=[];autosize=1;strokeColor=none;fillColor=none;fontSize=10;" parent="1" vertex="1">
          <mxGeometry x="662" y="243" width="220" height="30" as="geometry" />
        </mxCell>
        <mxCell id="aewcw3eaJGGGSch4zthT-1" value="&lt;font style=&quot;font-size: 10px;&quot;&gt;Virtual Network Peering&lt;br&gt;&lt;/font&gt;" style="text;html=1;align=center;verticalAlign=middle;resizable=0;points=[];autosize=1;strokeColor=none;fillColor=none;" parent="1" vertex="1">
          <mxGeometry x="673" y="404" width="130" height="30" as="geometry" />
        </mxCell>
        <mxCell id="megdzXUJxJWYtMqq8w_m-1" value="" style="rounded=1;whiteSpace=wrap;html=1;fillColor=#f5f5f5;fontColor=#333333;strokeColor=#666666;" parent="1" vertex="1">
          <mxGeometry x="435" y="501.59" width="205" height="111.41" as="geometry" />
        </mxCell>
        <mxCell id="megdzXUJxJWYtMqq8w_m-2" value="" style="group" parent="1" vertex="1" connectable="0">
          <mxGeometry x="450" y="507.78999999999996" width="170" height="93" as="geometry" />
        </mxCell>
        <mxCell id="megdzXUJxJWYtMqq8w_m-3" value="" style="image;aspect=fixed;html=1;points=[];align=center;fontSize=12;image=img/lib/azure2/networking/Bastions.svg;" parent="megdzXUJxJWYtMqq8w_m-2" vertex="1">
          <mxGeometry x="33" y="25" width="57.99999999999999" height="68" as="geometry" />
        </mxCell>
        <mxCell id="megdzXUJxJWYtMqq8w_m-4" value="bastion-host-hub-vnet" style="text;html=1;align=center;verticalAlign=middle;resizable=0;points=[];autosize=1;strokeColor=none;fillColor=none;" parent="megdzXUJxJWYtMqq8w_m-2" vertex="1">
          <mxGeometry x="18" width="140" height="30" as="geometry" />
        </mxCell>
        <mxCell id="megdzXUJxJWYtMqq8w_m-6" value="" style="group" parent="1" vertex="1" connectable="0">
          <mxGeometry x="522" y="566" width="125" height="42" as="geometry" />
        </mxCell>
        <mxCell id="megdzXUJxJWYtMqq8w_m-7" value="" style="image;aspect=fixed;html=1;points=[];align=center;fontSize=12;image=img/lib/azure2/networking/Public_IP_Addresses.svg;" parent="megdzXUJxJWYtMqq8w_m-6" vertex="1">
          <mxGeometry x="46.25" width="27.5" height="22" as="geometry" />
        </mxCell>
        <mxCell id="megdzXUJxJWYtMqq8w_m-8" value="bastion-pip-hub-vnet" style="text;html=1;align=center;verticalAlign=middle;resizable=0;points=[];autosize=1;strokeColor=none;fillColor=none;fontSize=9;" parent="megdzXUJxJWYtMqq8w_m-6" vertex="1">
          <mxGeometry x="5" y="22" width="110" height="20" as="geometry" />
        </mxCell>
        <mxCell id="megdzXUJxJWYtMqq8w_m-5" value="AzureBastionSubnet" style="text;html=1;align=center;verticalAlign=middle;resizable=0;points=[];autosize=1;strokeColor=none;fillColor=none;" parent="1" vertex="1">
          <mxGeometry x="435" y="480" width="130" height="30" as="geometry" />
        </mxCell>
        <mxCell id="megdzXUJxJWYtMqq8w_m-9" value="" style="group" parent="1" vertex="1" connectable="0">
          <mxGeometry x="860" y="168" width="230" height="180" as="geometry" />
        </mxCell>
        <mxCell id="JOG0SNgDEtSP5BDotJ7P-9" value="" style="rounded=1;whiteSpace=wrap;html=1;dashed=1;strokeColor=#3399FF;arcSize=5;" parent="megdzXUJxJWYtMqq8w_m-9" vertex="1">
          <mxGeometry x="20" y="23" width="210" height="157" as="geometry" />
        </mxCell>
        <mxCell id="JOG0SNgDEtSP5BDotJ7P-10" value="" style="image;aspect=fixed;html=1;points=[];align=center;fontSize=12;image=img/lib/azure2/networking/Virtual_Networks.svg;imageBackground=default;" parent="megdzXUJxJWYtMqq8w_m-9" vertex="1">
          <mxGeometry y="13" width="50.25" height="30" as="geometry" />
        </mxCell>
        <mxCell id="JOG0SNgDEtSP5BDotJ7P-13" value="internal-vnet-0 - 10.0.8.0/22" style="text;html=1;align=center;verticalAlign=middle;resizable=0;points=[];autosize=1;strokeColor=none;fillColor=none;" parent="megdzXUJxJWYtMqq8w_m-9" vertex="1">
          <mxGeometry x="39" width="170" height="30" as="geometry" />
        </mxCell>
        <mxCell id="JOG0SNgDEtSP5BDotJ7P-30" value="" style="group" parent="megdzXUJxJWYtMqq8w_m-9" vertex="1" connectable="0">
          <mxGeometry x="93" y="42" width="70" height="87" as="geometry" />
        </mxCell>
        <mxCell id="JOG0SNgDEtSP5BDotJ7P-11" value="" style="image;aspect=fixed;html=1;points=[];align=center;fontSize=12;image=img/lib/azure2/compute/Virtual_Machine.svg;" parent="JOG0SNgDEtSP5BDotJ7P-30" vertex="1">
          <mxGeometry x="1" y="23" width="69" height="64" as="geometry" />
        </mxCell>
        <mxCell id="JOG0SNgDEtSP5BDotJ7P-12" value="wsi-int-0" style="text;html=1;align=center;verticalAlign=middle;resizable=0;points=[];autosize=1;strokeColor=none;fillColor=none;" parent="JOG0SNgDEtSP5BDotJ7P-30" vertex="1">
          <mxGeometry width="70" height="30" as="geometry" />
        </mxCell>
        <mxCell id="JOG0SNgDEtSP5BDotJ7P-44" style="edgeStyle=orthogonalEdgeStyle;rounded=0;orthogonalLoop=1;jettySize=auto;html=1;dashed=1;strokeColor=#EA6B66;strokeWidth=2;" parent="1" target="JOG0SNgDEtSP5BDotJ7P-4" edge="1">
          <mxGeometry relative="1" as="geometry">
            <Array as="points">
              <mxPoint x="150" y="460" />
              <mxPoint x="420" y="460" />
              <mxPoint x="420" y="410" />
            </Array>
            <mxPoint x="529" y="350" as="targetPoint" />
            <mxPoint x="150" y="400" as="sourcePoint" />
          </mxGeometry>
        </mxCell>
        <mxCell id="megdzXUJxJWYtMqq8w_m-10" style="edgeStyle=orthogonalEdgeStyle;rounded=0;orthogonalLoop=1;jettySize=auto;html=1;startArrow=classic;startFill=1;strokeWidth=2;dashed=1;exitX=0.001;exitY=0.566;exitDx=0;exitDy=0;exitPerimeter=0;" parent="1" source="JOG0SNgDEtSP5BDotJ7P-9" target="JOG0SNgDEtSP5BDotJ7P-2" edge="1">
          <mxGeometry relative="1" as="geometry">
            <Array as="points">
              <mxPoint x="800" y="280" />
              <mxPoint x="800" y="360" />
            </Array>
            <mxPoint x="850" y="230" as="sourcePoint" />
            <mxPoint x="691.0500000000001" y="348.5291549295775" as="targetPoint" />
          </mxGeometry>
        </mxCell>
        <mxCell id="JOG0SNgDEtSP5BDotJ7P-46" style="edgeStyle=orthogonalEdgeStyle;rounded=0;orthogonalLoop=1;jettySize=auto;html=1;strokeColor=#EA6B66;dashed=1;strokeWidth=2;exitX=0.997;exitY=0.359;exitDx=0;exitDy=0;exitPerimeter=0;" parent="1" source="JOG0SNgDEtSP5BDotJ7P-4" target="JOG0SNgDEtSP5BDotJ7P-11" edge="1">
          <mxGeometry relative="1" as="geometry">
            <Array as="points">
              <mxPoint x="650" y="410" />
              <mxPoint x="650" y="265" />
            </Array>
            <mxPoint x="573" y="412" as="sourcePoint" />
            <mxPoint x="830" y="260" as="targetPoint" />
          </mxGeometry>
        </mxCell>
        <mxCell id="JOG0SNgDEtSP5BDotJ7P-3" value="" style="image;aspect=fixed;html=1;points=[];align=center;fontSize=12;image=img/lib/azure2/networking/Virtual_Networks.svg;imageBackground=default;" parent="1" vertex="1">
          <mxGeometry x="399" y="109.99953051643195" width="50.25" height="30" as="geometry" />
        </mxCell>
        <mxCell id="JOG0SNgDEtSP5BDotJ7P-4" value="" style="image;aspect=fixed;html=1;points=[];align=center;fontSize=12;image=img/lib/azure2/compute/Virtual_Machine.svg;" parent="1" vertex="1">
          <mxGeometry x="503" y="386.9992018779343" width="69" height="64" as="geometry" />
        </mxCell>
        <mxCell id="YD3ktpNltf6AlCkL0afC-11" style="edgeStyle=orthogonalEdgeStyle;rounded=0;orthogonalLoop=1;jettySize=auto;html=1;fillColor=#e3c800;strokeColor=#B09500;strokeWidth=3;dashed=1;" edge="1" parent="1" source="JOG0SNgDEtSP5BDotJ7P-5">
          <mxGeometry relative="1" as="geometry">
            <mxPoint x="537.5" y="319.9999999999999" as="targetPoint" />
          </mxGeometry>
        </mxCell>
        <mxCell id="JOG0SNgDEtSP5BDotJ7P-5" value="router-ubuntu-vm" style="text;html=1;align=center;verticalAlign=middle;resizable=0;points=[];autosize=1;strokeColor=none;fillColor=none;" parent="1" vertex="1">
          <mxGeometry x="477.5" y="363.0046478873239" width="120" height="30" as="geometry" />
        </mxCell>
        <mxCell id="JOG0SNgDEtSP5BDotJ7P-6" value="hub-vnet - 10.0.0.0/22" style="text;html=1;align=center;verticalAlign=middle;resizable=0;points=[];autosize=1;strokeColor=none;fillColor=none;" parent="1" vertex="1">
          <mxGeometry x="445" y="116" width="140" height="30" as="geometry" />
        </mxCell>
        <mxCell id="zMQaQVEI4AzmIbu18Spw-2" value="AppGWSubnet" style="text;html=1;align=center;verticalAlign=middle;resizable=0;points=[];autosize=1;strokeColor=none;fillColor=none;" parent="1" vertex="1">
          <mxGeometry x="73" y="267.15962441314554" width="100" height="30" as="geometry" />
        </mxCell>
        <mxCell id="YD3ktpNltf6AlCkL0afC-2" value="hub-subnet-0" style="text;html=1;align=center;verticalAlign=middle;resizable=0;points=[];autosize=1;strokeColor=none;fillColor=none;" vertex="1" parent="1">
          <mxGeometry x="435" y="325.5" width="90" height="30" as="geometry" />
        </mxCell>
        <mxCell id="YD3ktpNltf6AlCkL0afC-3" value="" style="rounded=1;whiteSpace=wrap;html=1;fillColor=#f5f5f5;fontColor=#333333;strokeColor=#666666;" vertex="1" parent="1">
          <mxGeometry x="432.5" y="170" width="205" height="149" as="geometry" />
        </mxCell>
        <mxCell id="YD3ktpNltf6AlCkL0afC-4" value="&lt;div&gt;AzureFirewallSubnet&lt;/div&gt;" style="text;html=1;align=center;verticalAlign=middle;resizable=0;points=[];autosize=1;strokeColor=none;fillColor=none;" vertex="1" parent="1">
          <mxGeometry x="432.5" y="146" width="130" height="30" as="geometry" />
        </mxCell>
        <mxCell id="YD3ktpNltf6AlCkL0afC-5" value="" style="image;aspect=fixed;html=1;points=[];align=center;fontSize=12;image=img/lib/azure2/networking/Firewalls.svg;" vertex="1" parent="1">
          <mxGeometry x="471.5" y="260" width="56.99" height="48.16" as="geometry" />
        </mxCell>
        <mxCell id="YD3ktpNltf6AlCkL0afC-6" value="hub-firewall" style="text;html=1;align=center;verticalAlign=middle;resizable=0;points=[];autosize=1;strokeColor=none;fillColor=none;" vertex="1" parent="1">
          <mxGeometry x="460" y="230" width="80" height="30" as="geometry" />
        </mxCell>
        <mxCell id="YD3ktpNltf6AlCkL0afC-7" value="" style="group" vertex="1" connectable="0" parent="1">
          <mxGeometry x="522" y="273" width="125" height="42" as="geometry" />
        </mxCell>
        <mxCell id="YD3ktpNltf6AlCkL0afC-8" value="" style="image;aspect=fixed;html=1;points=[];align=center;fontSize=12;image=img/lib/azure2/networking/Public_IP_Addresses.svg;" vertex="1" parent="YD3ktpNltf6AlCkL0afC-7">
          <mxGeometry x="46.25" width="27.5" height="22" as="geometry" />
        </mxCell>
        <mxCell id="YD3ktpNltf6AlCkL0afC-9" value="hub-firewall-pip" style="text;html=1;align=center;verticalAlign=middle;resizable=0;points=[];autosize=1;strokeColor=none;fillColor=none;fontSize=9;" vertex="1" parent="YD3ktpNltf6AlCkL0afC-7">
          <mxGeometry x="20" y="22" width="80" height="20" as="geometry" />
        </mxCell>
        <mxCell id="GdvEBLSd4Fr59x4PzujR-1" value="" style="image;aspect=fixed;html=1;points=[];align=center;fontSize=12;image=img/lib/azure2/networking/NAT.svg;" parent="1" vertex="1">
          <mxGeometry x="484.87728000000004" y="181" width="26.243365695792892" height="26.243365695792892" as="geometry" />
        </mxCell>
        <mxCell id="GdvEBLSd4Fr59x4PzujR-2" value="&lt;font style=&quot;font-size: 10px;&quot;&gt;nat-gw-hub-vnet&lt;/font&gt;" style="text;html=1;align=center;verticalAlign=middle;resizable=0;points=[];autosize=1;strokeColor=none;fillColor=none;fontSize=11;" parent="1" vertex="1">
          <mxGeometry x="447.5" y="199.99873786407767" width="100" height="30" as="geometry" />
        </mxCell>
        <mxCell id="GdvEBLSd4Fr59x4PzujR-4" value="" style="image;aspect=fixed;html=1;points=[];align=center;fontSize=12;image=img/lib/azure2/networking/Public_IP_Addresses.svg;" parent="1" vertex="1">
          <mxGeometry x="547.5032" y="191.78947368421052" width="20.262000000000004" height="16.209600000000002" as="geometry" />
        </mxCell>
        <mxCell id="GdvEBLSd4Fr59x4PzujR-6" value="&lt;div style=&quot;font-size: 8px;&quot;&gt;&lt;font style=&quot;font-size: 8px;&quot;&gt;nat-gw-pip-hub-vnet&lt;/font&gt;&lt;/div&gt;" style="text;html=1;align=center;verticalAlign=middle;resizable=0;points=[];autosize=1;strokeColor=none;fillColor=none;fontSize=10;" parent="1" vertex="1">
          <mxGeometry x="512.63" y="174.79" width="90" height="20" as="geometry" />
        </mxCell>
        <mxCell id="YD3ktpNltf6AlCkL0afC-12" value="&lt;div align=&quot;left&quot;&gt;Internet Traffic&lt;/div&gt;&lt;div align=&quot;left&quot;&gt;through Firewall&lt;/div&gt;" style="text;html=1;align=left;verticalAlign=middle;resizable=0;points=[];autosize=1;strokeColor=none;fillColor=none;fontSize=8;" vertex="1" parent="1">
          <mxGeometry x="545" y="319" width="80" height="30" as="geometry" />
        </mxCell>
      </root>
    </mxGraphModel>
  </diagram>
</mxfile>
